<svg width="172" height="62" viewBox="0 0 172 62" fill="none" xmlns="http://www.w3.org/2000/svg">
<path d="M36.4943 0.291016H13.5019V8.29327H30.8809L45.6912 47.3333H55.2585L36.4943 0.291016Z" fill="white"/>
<path d="M24.0389 39.3312H0.496094V47.3334H24.0389V39.3312Z" fill="white"/>
<path fill-rule="evenodd" clip-rule="evenodd" d="M86.51 46.143L86.4836 46.1168C86.3136 50.4591 84.9572 53.7892 82.3588 56.0541C80.6787 57.5277 78.2566 58.5847 75.5792 59.17C72.8971 59.7563 69.9284 59.8762 67.1313 59.4495C61.5559 58.5991 56.5162 55.5346 56.0247 49.5088L55.9893 49.0752H63.7514L63.8042 49.4154C64.2195 52.0908 66.6462 53.4447 69.5141 53.7274C70.9353 53.8675 72.4246 53.7356 73.7415 53.3816C75.0639 53.0261 76.1787 52.456 76.8822 51.7473L76.8932 51.7362L76.905 51.726C77.3579 51.3355 77.714 50.7527 77.9868 50.0143C78.2589 49.2778 78.4393 48.4103 78.5559 47.4782C78.7894 45.6117 78.7608 43.544 78.7368 41.8494L78.7368 41.8457L78.7338 41.6391C76.7899 44.6622 74.2534 46.3484 71.5742 47.0057C68.6073 47.7335 65.5049 47.19 62.8929 45.8712C59.8988 44.4433 57.896 41.8423 56.6509 38.8565C55.4061 35.8714 54.9065 32.4761 54.9308 29.4021C54.8988 23.4106 57.7338 16.346 63.4498 13.6855C66.0151 12.4716 69.1758 11.991 72.1091 12.6764C74.6902 13.2796 77.0855 14.7848 78.7244 17.4606V13.2216H86.51V46.143ZM76.718 37.5395C75.3404 39.6331 73.3126 40.9842 70.6293 40.9445L70.6215 40.9445C67.9782 40.9558 65.9901 39.6074 64.6451 37.5296C63.2926 35.4402 62.603 32.6242 62.603 29.7849C62.603 26.9455 63.2926 24.1302 64.6451 22.0418C65.9899 19.9651 67.9779 18.6181 70.6212 18.6313L70.628 18.6313L70.6349 18.6311C73.362 18.5535 75.3971 19.8774 76.7664 21.9469C78.1446 24.0299 78.839 26.8628 78.8286 29.7263C78.8182 32.5894 78.1032 35.4343 76.718 37.5395Z" fill="white"/>
<path d="M99.1347 17.6414V13.2052H91.7376V47.3572H99.4989V26.4326C99.4989 25.3538 99.6774 24.332 100.026 23.3651C100.374 22.3978 100.859 21.5768 101.469 20.8963L101.475 20.8884C102.091 20.1641 102.826 19.6164 103.706 19.2403L103.712 19.2375L103.719 19.2344C104.598 18.8212 105.59 18.6069 106.718 18.6069C108.72 18.6069 110.115 19.1485 110.982 20.1593L110.988 20.1659C111.873 21.1522 112.392 22.8091 112.472 25.2274V47.3572H120.233V23.4067C120.233 19.7856 119.215 16.9952 117.113 15.1219C115.028 13.2647 112.194 12.3544 108.668 12.3544C106.529 12.3544 104.564 12.8688 102.791 13.9183C101.323 14.754 100.109 16.1955 99.1347 17.6414Z" fill="white"/>
<path fill-rule="evenodd" clip-rule="evenodd" d="M153.399 17.7784C150.661 14.3927 146.552 12.1957 141.102 12.3625C135.653 12.1957 131.543 14.3927 128.806 17.7784C126.076 21.1549 124.724 25.694 124.725 30.2123C124.725 34.7306 126.078 39.2692 128.808 42.6447C131.546 46.0293 135.655 48.2248 141.102 48.056C146.55 48.2248 150.659 46.0293 153.396 42.6447C156.126 39.2692 157.479 34.7306 157.48 30.2123C157.48 25.694 156.129 21.1549 153.399 17.7784ZM147.544 38.242C146.098 40.3986 143.956 41.8067 141.104 41.7952H141.101C138.248 41.8067 136.107 40.3986 134.661 38.242C133.207 36.0735 132.465 33.1532 132.463 30.21C132.461 27.2668 133.199 24.3472 134.652 22.18C136.096 20.0249 138.24 18.618 141.1 18.6313L141.104 18.6313C143.965 18.618 146.108 20.0249 147.553 22.18C149.005 24.3472 149.743 27.2668 149.742 30.21C149.74 33.1532 148.998 36.0735 147.544 38.242Z" fill="white"/>
<path d="M91.6642 59.8696V52.8814H94.1551C94.6965 52.8814 95.1458 52.9747 95.503 53.1612C95.8624 53.3478 96.1308 53.606 96.3082 53.9358C96.4857 54.2634 96.5744 54.6421 96.5744 55.0721C96.5744 55.4997 96.4845 55.8762 96.3048 56.2015C96.1274 56.5245 95.859 56.7759 95.4995 56.9556C95.1424 57.1353 94.6931 57.2252 94.1517 57.2252H92.2648V56.3175H94.0562C94.3974 56.3175 94.6749 56.2686 94.8888 56.1708C95.1049 56.073 95.263 55.9308 95.3631 55.7443C95.4631 55.5577 95.5132 55.3337 95.5132 55.0721C95.5132 54.8082 95.462 54.5796 95.3596 54.3862C95.2595 54.1929 95.1014 54.045 94.8853 53.9426C94.6715 53.838 94.3906 53.7857 94.0425 53.7857H92.7186V59.8696H91.6642ZM95.114 56.7168L96.8405 59.8696H95.6394L93.947 56.7168H95.114ZM99.7765 59.9754C99.2601 59.9754 98.8154 59.8651 98.4423 59.6444C98.0715 59.4215 97.7849 59.1087 97.5824 58.7061C97.3823 58.3012 97.2822 57.8269 97.2822 57.2832C97.2822 56.7463 97.3823 56.2732 97.5824 55.8637C97.7849 55.4542 98.067 55.1346 98.4287 54.9049C98.7926 54.6751 99.218 54.5603 99.7048 54.5603C100.001 54.5603 100.287 54.6092 100.565 54.707C100.842 54.8048 101.091 54.9583 101.312 55.1676C101.533 55.3769 101.707 55.6487 101.834 55.9831C101.961 56.3153 102.025 56.719 102.025 57.1945V57.5562H97.8588V56.7918H101.025C101.025 56.5234 100.971 56.2857 100.862 56.0787C100.752 55.8694 100.599 55.7045 100.401 55.5839C100.205 55.4633 99.9755 55.4031 99.7117 55.4031C99.425 55.4031 99.1748 55.4736 98.961 55.6146C98.7494 55.7534 98.5856 55.9354 98.4696 56.1606C98.3559 56.3835 98.299 56.6258 98.299 56.8874V57.4845C98.299 57.8348 98.3604 58.1328 98.4833 58.3785C98.6084 58.6242 98.7824 58.8118 99.0053 58.9415C99.2283 59.0689 99.4887 59.1326 99.7867 59.1326C99.9801 59.1326 100.156 59.1053 100.316 59.0507C100.475 58.9938 100.612 58.9097 100.728 58.7982C100.845 58.6867 100.933 58.5491 100.995 58.3853L101.96 58.5593C101.883 58.8437 101.744 59.0928 101.544 59.3066C101.346 59.5182 101.097 59.6831 100.797 59.8014C100.499 59.9174 100.159 59.9754 99.7765 59.9754ZM104.49 59.9856C104.158 59.9856 103.858 59.9242 103.589 59.8014C103.321 59.6763 103.108 59.4954 102.951 59.2588C102.797 59.0223 102.719 58.7322 102.719 58.3887C102.719 58.093 102.776 57.8496 102.89 57.6585C103.004 57.4674 103.157 57.3162 103.351 57.2047C103.544 57.0932 103.76 57.0091 103.999 56.9522C104.238 56.8953 104.481 56.8521 104.729 56.8225C105.043 56.7861 105.298 56.7566 105.493 56.7338C105.689 56.7088 105.831 56.669 105.92 56.6144C106.009 56.5598 106.053 56.4711 106.053 56.3482V56.3244C106.053 56.0264 105.969 55.7955 105.8 55.6317C105.634 55.4679 105.386 55.386 105.057 55.386C104.713 55.386 104.442 55.4622 104.245 55.6146C104.049 55.7648 103.914 55.932 103.838 56.1162L102.88 55.8978C102.993 55.5794 103.159 55.3223 103.378 55.1267C103.598 54.9288 103.852 54.7855 104.139 54.6967C104.425 54.6057 104.727 54.5603 105.043 54.5603C105.252 54.5603 105.474 54.5853 105.708 54.6353C105.945 54.6831 106.166 54.7718 106.37 54.9015C106.577 55.0311 106.747 55.2165 106.879 55.4577C107.011 55.6965 107.077 56.007 107.077 56.3892V59.8696H106.08V59.1531H106.039C105.973 59.285 105.874 59.4147 105.742 59.5421C105.611 59.6694 105.441 59.7752 105.234 59.8594C105.027 59.9436 104.779 59.9856 104.49 59.9856ZM104.712 59.1667C104.994 59.1667 105.235 59.111 105.435 58.9995C105.638 58.8881 105.791 58.7425 105.896 58.5628C106.003 58.3808 106.056 58.1863 106.056 57.9793V57.3037C106.02 57.3401 105.949 57.3742 105.845 57.406C105.742 57.4356 105.625 57.4618 105.493 57.4845C105.361 57.505 105.233 57.5243 105.108 57.5425C104.983 57.5584 104.878 57.5721 104.794 57.5835C104.596 57.6085 104.415 57.6506 104.251 57.7097C104.09 57.7689 103.96 57.8542 103.862 57.9656C103.767 58.0748 103.719 58.2204 103.719 58.4024C103.719 58.6549 103.812 58.846 103.999 58.9756C104.185 59.103 104.423 59.1667 104.712 59.1667ZM112.171 55.9081L111.246 56.0719C111.207 55.9536 111.146 55.841 111.062 55.734C110.98 55.6271 110.868 55.5396 110.727 55.4713C110.586 55.4031 110.41 55.3689 110.199 55.3689C109.91 55.3689 109.669 55.4338 109.475 55.5634C109.282 55.6908 109.185 55.8557 109.185 56.0582C109.185 56.2334 109.25 56.3744 109.38 56.4813C109.509 56.5882 109.719 56.6758 110.007 56.7441L110.84 56.9351C111.322 57.0466 111.682 57.2184 111.918 57.4504C112.155 57.6824 112.273 57.9838 112.273 58.3546C112.273 58.6685 112.182 58.9483 112 59.194C111.82 59.4374 111.569 59.6285 111.246 59.7673C110.925 59.906 110.553 59.9754 110.13 59.9754C109.543 59.9754 109.065 59.8503 108.694 59.6001C108.323 59.3476 108.096 58.9893 108.011 58.5252L108.997 58.3751C109.059 58.6321 109.185 58.8266 109.376 58.9586C109.567 59.0882 109.816 59.1531 110.124 59.1531C110.458 59.1531 110.725 59.0837 110.925 58.9449C111.126 58.8039 111.226 58.6321 111.226 58.4297C111.226 58.2659 111.164 58.1283 111.041 58.0168C110.921 57.9053 110.735 57.8212 110.485 57.7643L109.598 57.5698C109.109 57.4583 108.747 57.2809 108.513 57.0375C108.281 56.7941 108.165 56.4859 108.165 56.1128C108.165 55.8034 108.251 55.5327 108.424 55.3007C108.597 55.0687 108.836 54.8878 109.141 54.7582C109.446 54.6262 109.795 54.5603 110.188 54.5603C110.755 54.5603 111.201 54.6831 111.526 54.9288C111.851 55.1722 112.066 55.4986 112.171 55.9081ZM115.41 59.9754C114.919 59.9754 114.49 59.8628 114.124 59.6376C113.758 59.4124 113.473 59.0973 113.271 58.6924C113.069 58.2875 112.967 57.8143 112.967 57.2729C112.967 56.7293 113.069 56.2538 113.271 55.8466C113.473 55.4395 113.758 55.1233 114.124 54.8981C114.49 54.6729 114.919 54.5603 115.41 54.5603C115.902 54.5603 116.331 54.6729 116.697 54.8981C117.063 55.1233 117.347 55.4395 117.55 55.8466C117.752 56.2538 117.854 56.7293 117.854 57.2729C117.854 57.8143 117.752 58.2875 117.55 58.6924C117.347 59.0973 117.063 59.4124 116.697 59.6376C116.331 59.8628 115.902 59.9754 115.41 59.9754ZM115.414 59.1189C115.732 59.1189 115.996 59.0348 116.206 58.8664C116.415 58.6981 116.569 58.474 116.67 58.1942C116.772 57.9144 116.823 57.6062 116.823 57.2695C116.823 56.9351 116.772 56.628 116.67 56.3482C116.569 56.0662 116.415 55.8398 116.206 55.6692C115.996 55.4986 115.732 55.4133 115.414 55.4133C115.093 55.4133 114.827 55.4986 114.615 55.6692C114.406 55.8398 114.25 56.0662 114.148 56.3482C114.048 56.628 113.998 56.9351 113.998 57.2695C113.998 57.6062 114.048 57.9144 114.148 58.1942C114.25 58.474 114.406 58.6981 114.615 58.8664C114.827 59.0348 115.093 59.1189 115.414 59.1189ZM119.82 56.7577V59.8696H118.8V54.6285H119.78V55.4815H119.844C119.965 55.204 120.154 54.9811 120.411 54.8128C120.67 54.6444 120.997 54.5603 121.39 54.5603C121.747 54.5603 122.06 54.6353 122.328 54.7855C122.597 54.9333 122.805 55.154 122.953 55.4474C123.101 55.7409 123.175 56.1037 123.175 56.5359V59.8696H122.154V56.6588C122.154 56.2789 122.055 55.982 121.858 55.7682C121.66 55.5521 121.388 55.444 121.042 55.444C120.805 55.444 120.595 55.4952 120.411 55.5976C120.229 55.6999 120.084 55.8501 119.977 56.048C119.873 56.2436 119.82 56.4802 119.82 56.7577ZM124.351 59.8696V54.6285H125.371V59.8696H124.351ZM124.866 53.8198C124.689 53.8198 124.536 53.7607 124.409 53.6424C124.284 53.5218 124.221 53.3785 124.221 53.2124C124.221 53.0441 124.284 52.9008 124.409 52.7825C124.536 52.6619 124.689 52.6016 124.866 52.6016C125.043 52.6016 125.195 52.6619 125.32 52.7825C125.447 52.9008 125.511 53.0441 125.511 53.2124C125.511 53.3785 125.447 53.5218 125.32 53.6424C125.195 53.7607 125.043 53.8198 124.866 53.8198ZM127.572 56.7577V59.8696H126.551V54.6285H127.531V55.4815H127.596C127.716 55.204 127.905 54.9811 128.162 54.8128C128.421 54.6444 128.748 54.5603 129.141 54.5603C129.498 54.5603 129.811 54.6353 130.08 54.7855C130.348 54.9333 130.556 55.154 130.704 55.4474C130.852 55.7409 130.926 56.1037 130.926 56.5359V59.8696H129.906V56.6588C129.906 56.2789 129.807 55.982 129.609 55.7682C129.411 55.5521 129.139 55.444 128.793 55.444C128.557 55.444 128.346 55.4952 128.162 55.5976C127.98 55.6999 127.836 55.8501 127.729 56.048C127.624 56.2436 127.572 56.4802 127.572 56.7577ZM134.299 61.9442C133.883 61.9442 133.525 61.8896 133.225 61.7805C132.927 61.6713 132.683 61.5268 132.494 61.3471C132.306 61.1674 132.165 60.9706 132.071 60.7568L132.948 60.3951C133.01 60.4952 133.092 60.601 133.194 60.7124C133.299 60.8262 133.44 60.9229 133.617 61.0025C133.797 61.0821 134.028 61.1219 134.31 61.1219C134.696 61.1219 135.016 61.0275 135.268 60.8387C135.521 60.6522 135.647 60.3542 135.647 59.9447V58.9142H135.582C135.521 59.0257 135.432 59.1497 135.316 59.2861C135.203 59.4226 135.046 59.5409 134.845 59.641C134.645 59.7411 134.385 59.7911 134.064 59.7911C133.65 59.7911 133.277 59.6945 132.945 59.5011C132.615 59.3055 132.353 59.0177 132.16 58.6378C131.969 58.2557 131.873 57.7859 131.873 57.2286C131.873 56.6713 131.968 56.1936 132.157 55.7955C132.348 55.3974 132.609 55.0926 132.941 54.881C133.273 54.6672 133.65 54.5603 134.071 54.5603C134.396 54.5603 134.659 54.6148 134.859 54.724C135.059 54.831 135.215 54.9561 135.327 55.0994C135.44 55.2427 135.528 55.3689 135.589 55.4781H135.664V54.6285H136.664V59.9856C136.664 60.4361 136.559 60.8057 136.35 61.0946C136.141 61.3835 135.858 61.5973 135.501 61.7361C135.146 61.8749 134.745 61.9442 134.299 61.9442ZM134.289 58.9449C134.583 58.9449 134.831 58.8767 135.033 58.7402C135.238 58.6014 135.392 58.4035 135.497 58.1465C135.604 57.8871 135.657 57.5766 135.657 57.2149C135.657 56.8623 135.605 56.5518 135.501 56.2834C135.396 56.015 135.242 55.8057 135.04 55.6556C134.837 55.5032 134.587 55.4269 134.289 55.4269C133.982 55.4269 133.726 55.5066 133.521 55.6658C133.317 55.8228 133.162 56.0366 133.057 56.3073C132.955 56.578 132.904 56.8805 132.904 57.2149C132.904 57.5584 132.956 57.8598 133.061 58.1192C133.165 58.3785 133.32 58.581 133.525 58.7265C133.732 58.8721 133.987 58.9449 134.289 58.9449ZM140.863 59.8696H139.744L142.259 52.8814H143.477L145.992 59.8696H144.872L142.897 54.1508H142.842L140.863 59.8696ZM141.051 57.133H144.681V58.0202H141.051V57.133ZM148.84 61.9442C148.424 61.9442 148.065 61.8896 147.765 61.7805C147.467 61.6713 147.224 61.5268 147.035 61.3471C146.846 61.1674 146.705 60.9706 146.612 60.7568L147.489 60.3951C147.55 60.4952 147.632 60.601 147.734 60.7124C147.839 60.8262 147.98 60.9229 148.157 61.0025C148.337 61.0821 148.568 61.1219 148.85 61.1219C149.237 61.1219 149.556 61.0275 149.809 60.8387C150.061 60.6522 150.188 60.3542 150.188 59.9447V58.9142H150.123C150.061 59.0257 149.973 59.1497 149.857 59.2861C149.743 59.4226 149.586 59.5409 149.386 59.641C149.186 59.7411 148.925 59.7911 148.604 59.7911C148.19 59.7911 147.817 59.6945 147.485 59.5011C147.155 59.3055 146.894 59.0177 146.7 58.6378C146.509 58.2557 146.414 57.7859 146.414 57.2286C146.414 56.6713 146.508 56.1936 146.697 55.7955C146.888 55.3974 147.15 55.0926 147.482 54.881C147.814 54.6672 148.19 54.5603 148.611 54.5603C148.936 54.5603 149.199 54.6148 149.399 54.724C149.6 54.831 149.755 54.9561 149.867 55.0994C149.981 55.2427 150.068 55.3689 150.13 55.4781H150.205V54.6285H151.204V59.9856C151.204 60.4361 151.1 60.8057 150.891 61.0946C150.681 61.3835 150.398 61.5973 150.041 61.7361C149.686 61.8749 149.286 61.9442 148.84 61.9442ZM148.83 58.9449C149.123 58.9449 149.371 58.8767 149.573 58.7402C149.778 58.6014 149.933 58.4035 150.037 58.1465C150.144 57.8871 150.198 57.5766 150.198 57.2149C150.198 56.8623 150.146 56.5518 150.041 56.2834C149.936 56.015 149.783 55.8057 149.58 55.6556C149.378 55.5032 149.128 55.4269 148.83 55.4269C148.522 55.4269 148.267 55.5066 148.062 55.6658C147.857 55.8228 147.702 56.0366 147.598 56.3073C147.495 56.578 147.444 56.8805 147.444 57.2149C147.444 57.5584 147.497 57.8598 147.601 58.1192C147.706 58.3785 147.86 58.581 148.065 58.7265C148.272 58.8721 148.527 58.9449 148.83 58.9449ZM154.639 59.9754C154.123 59.9754 153.678 59.8651 153.305 59.6444C152.934 59.4215 152.648 59.1087 152.445 58.7061C152.245 58.3012 152.145 57.8269 152.145 57.2832C152.145 56.7463 152.245 56.2732 152.445 55.8637C152.648 55.4542 152.93 55.1346 153.292 54.9049C153.656 54.6751 154.081 54.5603 154.568 54.5603C154.863 54.5603 155.15 54.6092 155.428 54.707C155.705 54.8048 155.954 54.9583 156.175 55.1676C156.396 55.3769 156.57 55.6487 156.697 55.9831C156.824 56.3153 156.888 56.719 156.888 57.1945V57.5562H152.722V56.7918H155.888C155.888 56.5234 155.834 56.2857 155.725 56.0787C155.615 55.8694 155.462 55.7045 155.264 55.5839C155.068 55.4633 154.838 55.4031 154.575 55.4031C154.288 55.4031 154.038 55.4736 153.824 55.6146C153.612 55.7534 153.449 55.9354 153.333 56.1606C153.219 56.3835 153.162 56.6258 153.162 56.8874V57.4845C153.162 57.8348 153.223 58.1328 153.346 58.3785C153.471 58.6242 153.645 58.8118 153.868 58.9415C154.091 59.0689 154.352 59.1326 154.65 59.1326C154.843 59.1326 155.019 59.1053 155.179 59.0507C155.338 58.9938 155.475 58.9097 155.591 58.7982C155.707 58.6867 155.796 58.5491 155.858 58.3853L156.823 58.5593C156.746 58.8437 156.607 59.0928 156.407 59.3066C156.209 59.5182 155.96 59.6831 155.66 59.8014C155.362 59.9174 155.022 59.9754 154.639 59.9754ZM158.848 56.7577V59.8696H157.828V54.6285H158.807V55.4815H158.872C158.993 55.204 159.181 54.9811 159.438 54.8128C159.698 54.6444 160.024 54.5603 160.418 54.5603C160.775 54.5603 161.088 54.6353 161.356 54.7855C161.625 54.9333 161.833 55.154 161.981 55.4474C162.128 55.7409 162.202 56.1037 162.202 56.5359V59.8696H161.182V56.6588C161.182 56.2789 161.083 55.982 160.885 55.7682C160.687 55.5521 160.415 55.444 160.07 55.444C159.833 55.444 159.623 55.4952 159.438 55.5976C159.256 55.6999 159.112 55.8501 159.005 56.048C158.9 56.2436 158.848 56.4802 158.848 56.7577ZM165.825 54.6285V55.4474H162.962V54.6285H165.825ZM163.73 53.3728H164.75V58.3307C164.75 58.5286 164.78 58.6776 164.839 58.7777C164.898 58.8755 164.974 58.9426 165.067 58.979C165.163 59.0132 165.267 59.0302 165.378 59.0302C165.46 59.0302 165.532 59.0245 165.593 59.0132C165.654 59.0018 165.702 58.9927 165.736 58.9859L165.921 59.8287C165.861 59.8514 165.777 59.8742 165.668 59.8969C165.559 59.9219 165.422 59.9356 165.259 59.9379C164.99 59.9424 164.74 59.8947 164.508 59.7946C164.276 59.6945 164.088 59.5398 163.945 59.3305C163.802 59.1212 163.73 58.8585 163.73 58.5423V53.3728ZM170.604 55.9081L169.68 56.0719C169.641 55.9536 169.58 55.841 169.495 55.734C169.414 55.6271 169.302 55.5396 169.161 55.4713C169.02 55.4031 168.844 55.3689 168.632 55.3689C168.343 55.3689 168.102 55.4338 167.909 55.5634C167.715 55.6908 167.619 55.8557 167.619 56.0582C167.619 56.2334 167.684 56.3744 167.813 56.4813C167.943 56.5882 168.152 56.6758 168.441 56.7441L169.274 56.9351C169.756 57.0466 170.115 57.2184 170.352 57.4504C170.588 57.6824 170.707 57.9838 170.707 58.3546C170.707 58.6685 170.616 58.9483 170.434 59.194C170.254 59.4374 170.003 59.6285 169.68 59.7673C169.359 59.906 168.987 59.9754 168.564 59.9754C167.977 59.9754 167.498 59.8503 167.127 59.6001C166.757 59.3476 166.529 58.9893 166.445 58.5252L167.431 58.3751C167.492 58.6321 167.619 58.8266 167.81 58.9586C168.001 59.0882 168.25 59.1531 168.557 59.1531C168.891 59.1531 169.159 59.0837 169.359 58.9449C169.559 58.8039 169.659 58.6321 169.659 58.4297C169.659 58.2659 169.598 58.1283 169.475 58.0168C169.354 57.9053 169.169 57.8212 168.919 57.7643L168.032 57.5698C167.543 57.4583 167.181 57.2809 166.947 57.0375C166.714 56.7941 166.598 56.4859 166.598 56.1128C166.598 55.8034 166.685 55.5327 166.858 55.3007C167.031 55.0687 167.27 54.8878 167.574 54.7582C167.879 54.6262 168.228 54.5603 168.622 54.5603C169.188 54.5603 169.634 54.6831 169.959 54.9288C170.285 55.1722 170.5 55.4986 170.604 55.9081Z" fill="#CECECE"/>
</svg>
